<svg width="20" height="20" viewBox="0 0 20 20" fill="none" xmlns="http://www.w3.org/2000/svg">
  <rect width="20" height="20" rx="10" fill="#2D2D2D"/>
  <path d="M10 4C6.68629 4 4 6.68629 4 10C4 13.3137 6.68629 16 10 16C13.3137 16 16 13.3137 16 10C16 6.68629 13.3137 4 10 4ZM7 8.5C7 7.11929 8.11929 6 9.5 6C10.8807 6 12 7.11929 12 8.5C12 9.88071 10.8807 11 9.5 11C8.11929 11 7 9.88071 7 8.5ZM14.9984 13.4999C14.9984 13.4999 14.9984 13.4999 14.9984 13.5C14.4051 14.3967 13.5346 15.0879 12.5 15.4722C11.4654 15.8566 10.3297 15.9066 9.26632 15.6154C8.20295 15.3243 7.26545 14.7066 6.58141 13.8519C5.89737 12.9971 5.50034 11.9471 5.44999 10.8599C6.23244 10.2883 7.17669 10 8.14999 10C8.44999 10 8.74999 10.0333 9.04999 10.0999C9.34999 10.1666 9.64999 10.2666 9.94999 10.3999C10.25 10.5333 10.55 10.7 10.85 10.9C11.15 11.1 11.45 11.3333 11.75 11.6C12.05 11.8666 12.35 12.1666 12.65 12.5C12.95 12.8333 13.25 13.1999 13.55 13.5999C14.0833 13.5999 14.5833 13.5666 15.05 13.4999C15.05 13.4999 15.0317 13.4999 14.9984 13.4999Z" fill="#A3E635"/>
</svg> 